<svg xmlns="http://www.w3.org/2000/svg" width="1080" height="1350" viewBox="0 0 1080 1350"><title>Cartão virtual de Kauan Alves da Silva</title><rect width="1080" height="1350" fill="#f7f5ee"/><rect width="1080" height="10" fill="#a8471b"/><circle cx="975" cy="180" r="110" fill="none" stroke="#cbd2be" stroke-width="1"/><circle cx="975" cy="180" r="170" fill="none" stroke="#cbd2be" stroke-width="1"/><circle cx="975" cy="180" r="230" fill="none" stroke="#cbd2be" stroke-width="1"/><text x="66" y="113" fill="#182719" font-family="Arial,Helvetica,sans-serif" font-size="65" font-weight="700">k</text><text x="100" y="113" fill="#a8471b" font-family="Arial,Helvetica,sans-serif" font-size="65" font-weight="700">.</text><text x="160" y="92" fill="#4f6246" font-family="monospace" font-size="20" font-weight="400">ENGENHARIA &amp; DADOS</text><text x="160" y="124" fill="#4f6246" font-family="monospace" font-size="15" font-weight="400">CARTÃO VIRTUAL / CONECTE-SE</text><text x="66" y="220" fill="#a8471b" font-family="monospace" font-size="17" font-weight="400">01 / QUEM CONSTRÓI</text><text x="62" y="325" fill="#182719" font-family="Arial,Helvetica,sans-serif" font-size="87" font-weight="700">Kauan Alves</text><text x="66" y="389" fill="#4f6246" font-family="Arial,Helvetica,sans-serif" font-size="58" font-weight="400">da Silva</text><text x="66" y="458" fill="#182719" font-family="Arial,Helvetica,sans-serif" font-size="32" font-weight="400">Engenheiro Civil</text><text x="66" y="504" fill="#4f6246" font-family="Arial,Helvetica,sans-serif" font-size="25" font-weight="400">Em transição para Engenharia de Dados</text><path d="M66 555L1014 555" fill="none" stroke="#cbd2be" stroke-width="2"/><text x="66" y="613" fill="#a8471b" font-family="monospace" font-size="18" font-weight="400">02 / VAMOS CONVERSAR</text><text x="66" y="675" fill="#4f6246" font-family="monospace" font-size="19" font-weight="400">WHATSAPP / TELEFONE</text><text x="66" y="722" fill="#182719" font-family="Arial,Helvetica,sans-serif" font-size="37" font-weight="400">+55 (11) 95419-6757</text><text x="66" y="784" fill="#4f6246" font-family="monospace" font-size="19" font-weight="400">E-MAIL</text><text x="66" y="831" fill="#182719" font-family="Arial,Helvetica,sans-serif" font-size="35" font-weight="400">kauanmacedo21@gmail.com</text><text x="66" y="891" fill="#4f6246" font-family="monospace" font-size="19" font-weight="400">LINKEDIN</text><text x="66" y="933" fill="#182719" font-family="Arial,Helvetica,sans-serif" font-size="27" font-weight="400">linkedin.com/in/kauan-alves-4925b6196</text><rect x="66" y="986" width="948" height="267" rx="14" fill="#ebeede" stroke="#cbd2be"/><text x="102" y="1041" fill="#a8471b" font-family="monospace" font-size="17" font-weight="400">03 / DO DIGITAL À CONVERSA</text><text x="102" y="1095" fill="#182719" font-family="Arial,Helvetica,sans-serif" font-size="33" font-weight="700">Boas conexões.</text><text x="102" y="1138" fill="#182719" font-family="Arial,Helvetica,sans-serif" font-size="33" font-weight="700">Novas possibilidades.</text><text x="102" y="1190" fill="#4f6246" font-family="Arial,Helvetica,sans-serif" font-size="22" font-weight="400">Escaneie para abrir meu WhatsApp.</text><rect x="756" y="1006" width="230" height="230" fill="white"/><rect x="780.8649" y="1030.8649" width="6.2162" height="6.2162" fill="black"/><rect x="787.0811" y="1030.8649" width="6.2162" height="6.2162" fill="black"/><rect x="793.2973" y="1030.8649" width="6.2162" height="6.2162" fill="black"/><rect x="799.5135" y="1030.8649" width="6.2162" height="6.2162" fill="black"/><rect x="805.7297" y="1030.8649" width="6.2162" height="6.2162" fill="black"/><rect x="811.9459" y="1030.8649" width="6.2162" height="6.2162" fill="black"/><rect x="818.1622" y="1030.8649" width="6.2162" height="6.2162" fill="black"/><rect x="830.5946" y="1030.8649" width="6.2162" height="6.2162" fill="black"/><rect x="843.0270" y="1030.8649" width="6.2162" height="6.2162" fill="black"/><rect x="855.4595" y="1030.8649" width="6.2162" height="6.2162" fill="black"/><rect x="861.6757" y="1030.8649" width="6.2162" height="6.2162" fill="black"/><rect x="867.8919" y="1030.8649" width="6.2162" height="6.2162" fill="black"/><rect x="874.1081" y="1030.8649" width="6.2162" height="6.2162" fill="black"/><rect x="905.1892" y="1030.8649" width="6.2162" height="6.2162" fill="black"/><rect x="917.6216" y="1030.8649" width="6.2162" height="6.2162" fill="black"/><rect x="923.8378" y="1030.8649" width="6.2162" height="6.2162" fill="black"/><rect x="930.0541" y="1030.8649" width="6.2162" height="6.2162" fill="black"/><rect x="936.2703" y="1030.8649" width="6.2162" height="6.2162" fill="black"/><rect x="942.4865" y="1030.8649" width="6.2162" height="6.2162" fill="black"/><rect x="948.7027" y="1030.8649" width="6.2162" height="6.2162" fill="black"/><rect x="954.9189" y="1030.8649" width="6.2162" height="6.2162" fill="black"/><rect x="780.8649" y="1037.0811" width="6.2162" height="6.2162" fill="black"/><rect x="818.1622" y="1037.0811" width="6.2162" height="6.2162" fill="black"/><rect x="874.1081" y="1037.0811" width="6.2162" height="6.2162" fill="black"/><rect x="905.1892" y="1037.0811" width="6.2162" height="6.2162" fill="black"/><rect x="917.6216" y="1037.0811" width="6.2162" height="6.2162" fill="black"/><rect x="954.9189" y="1037.0811" width="6.2162" height="6.2162" fill="black"/><rect x="780.8649" y="1043.2973" width="6.2162" height="6.2162" fill="black"/><rect x="793.2973" y="1043.2973" width="6.2162" height="6.2162" fill="black"/><rect x="799.5135" y="1043.2973" width="6.2162" height="6.2162" fill="black"/><rect x="805.7297" y="1043.2973" width="6.2162" height="6.2162" fill="black"/><rect x="818.1622" y="1043.2973" width="6.2162" height="6.2162" fill="black"/><rect x="830.5946" y="1043.2973" width="6.2162" height="6.2162" fill="black"/><rect x="836.8108" y="1043.2973" width="6.2162" height="6.2162" fill="black"/><rect x="849.2432" y="1043.2973" width="6.2162" height="6.2162" fill="black"/><rect x="855.4595" y="1043.2973" width="6.2162" height="6.2162" fill="black"/><rect x="861.6757" y="1043.2973" width="6.2162" height="6.2162" fill="black"/><rect x="886.5405" y="1043.2973" width="6.2162" height="6.2162" fill="black"/><rect x="898.9730" y="1043.2973" width="6.2162" height="6.2162" fill="black"/><rect x="905.1892" y="1043.2973" width="6.2162" height="6.2162" fill="black"/><rect x="917.6216" y="1043.2973" width="6.2162" height="6.2162" fill="black"/><rect x="930.0541" y="1043.2973" width="6.2162" height="6.2162" fill="black"/><rect x="936.2703" y="1043.2973" width="6.2162" height="6.2162" fill="black"/><rect x="942.4865" y="1043.2973" width="6.2162" height="6.2162" fill="black"/><rect x="954.9189" y="1043.2973" width="6.2162" height="6.2162" fill="black"/><rect x="780.8649" y="1049.5135" width="6.2162" height="6.2162" fill="black"/><rect x="793.2973" y="1049.5135" width="6.2162" height="6.2162" fill="black"/><rect x="799.5135" y="1049.5135" width="6.2162" height="6.2162" fill="black"/><rect x="805.7297" y="1049.5135" width="6.2162" height="6.2162" fill="black"/><rect x="818.1622" y="1049.5135" width="6.2162" height="6.2162" fill="black"/><rect x="836.8108" y="1049.5135" width="6.2162" height="6.2162" fill="black"/><rect x="843.0270" y="1049.5135" width="6.2162" height="6.2162" fill="black"/><rect x="849.2432" y="1049.5135" width="6.2162" height="6.2162" fill="black"/><rect x="855.4595" y="1049.5135" width="6.2162" height="6.2162" fill="black"/><rect x="874.1081" y="1049.5135" width="6.2162" height="6.2162" fill="black"/><rect x="880.3243" y="1049.5135" width="6.2162" height="6.2162" fill="black"/><rect x="886.5405" y="1049.5135" width="6.2162" height="6.2162" fill="black"/><rect x="905.1892" y="1049.5135" width="6.2162" height="6.2162" fill="black"/><rect x="917.6216" y="1049.5135" width="6.2162" height="6.2162" fill="black"/><rect x="930.0541" y="1049.5135" width="6.2162" height="6.2162" fill="black"/><rect x="936.2703" y="1049.5135" width="6.2162" height="6.2162" fill="black"/><rect x="942.4865" y="1049.5135" width="6.2162" height="6.2162" fill="black"/><rect x="954.9189" y="1049.5135" width="6.2162" height="6.2162" fill="black"/><rect x="780.8649" y="1055.7297" width="6.2162" height="6.2162" fill="black"/><rect x="793.2973" y="1055.7297" width="6.2162" height="6.2162" fill="black"/><rect x="799.5135" y="1055.7297" width="6.2162" height="6.2162" fill="black"/><rect x="805.7297" y="1055.7297" width="6.2162" height="6.2162" fill="black"/><rect x="818.1622" y="1055.7297" width="6.2162" height="6.2162" fill="black"/><rect x="843.0270" y="1055.7297" width="6.2162" height="6.2162" fill="black"/><rect x="855.4595" y="1055.7297" width="6.2162" height="6.2162" fill="black"/><rect x="874.1081" y="1055.7297" width="6.2162" height="6.2162" fill="black"/><rect x="880.3243" y="1055.7297" width="6.2162" height="6.2162" fill="black"/><rect x="886.5405" y="1055.7297" width="6.2162" height="6.2162" fill="black"/><rect x="905.1892" y="1055.7297" width="6.2162" height="6.2162" fill="black"/><rect x="917.6216" y="1055.7297" width="6.2162" height="6.2162" fill="black"/><rect x="930.0541" y="1055.7297" width="6.2162" height="6.2162" fill="black"/><rect x="936.2703" y="1055.7297" width="6.2162" height="6.2162" fill="black"/><rect x="942.4865" y="1055.7297" width="6.2162" height="6.2162" fill="black"/><rect x="954.9189" y="1055.7297" width="6.2162" height="6.2162" fill="black"/><rect x="780.8649" y="1061.9459" width="6.2162" height="6.2162" fill="black"/><rect x="818.1622" y="1061.9459" width="6.2162" height="6.2162" fill="black"/><rect x="830.5946" y="1061.9459" width="6.2162" height="6.2162" fill="black"/><rect x="836.8108" y="1061.9459" width="6.2162" height="6.2162" fill="black"/><rect x="843.0270" y="1061.9459" width="6.2162" height="6.2162" fill="black"/><rect x="861.6757" y="1061.9459" width="6.2162" height="6.2162" fill="black"/><rect x="867.8919" y="1061.9459" width="6.2162" height="6.2162" fill="black"/><rect x="880.3243" y="1061.9459" width="6.2162" height="6.2162" fill="black"/><rect x="886.5405" y="1061.9459" width="6.2162" height="6.2162" fill="black"/><rect x="892.7568" y="1061.9459" width="6.2162" height="6.2162" fill="black"/><rect x="917.6216" y="1061.9459" width="6.2162" height="6.2162" fill="black"/><rect x="954.9189" y="1061.9459" width="6.2162" height="6.2162" fill="black"/><rect x="780.8649" y="1068.1622" width="6.2162" height="6.2162" fill="black"/><rect x="787.0811" y="1068.1622" width="6.2162" height="6.2162" fill="black"/><rect x="793.2973" y="1068.1622" width="6.2162" height="6.2162" fill="black"/><rect x="799.5135" y="1068.1622" width="6.2162" height="6.2162" fill="black"/><rect x="805.7297" y="1068.1622" width="6.2162" height="6.2162" fill="black"/><rect x="811.9459" y="1068.1622" width="6.2162" height="6.2162" fill="black"/><rect x="818.1622" y="1068.1622" width="6.2162" height="6.2162" fill="black"/><rect x="830.5946" y="1068.1622" width="6.2162" height="6.2162" fill="black"/><rect x="843.0270" y="1068.1622" width="6.2162" height="6.2162" fill="black"/><rect x="855.4595" y="1068.1622" width="6.2162" height="6.2162" fill="black"/><rect x="867.8919" y="1068.1622" width="6.2162" height="6.2162" fill="black"/><rect x="880.3243" y="1068.1622" width="6.2162" height="6.2162" fill="black"/><rect x="892.7568" y="1068.1622" width="6.2162" height="6.2162" fill="black"/><rect x="905.1892" y="1068.1622" width="6.2162" height="6.2162" fill="black"/><rect x="917.6216" y="1068.1622" width="6.2162" height="6.2162" fill="black"/><rect x="923.8378" y="1068.1622" width="6.2162" height="6.2162" fill="black"/><rect x="930.0541" y="1068.1622" width="6.2162" height="6.2162" fill="black"/><rect x="936.2703" y="1068.1622" width="6.2162" height="6.2162" fill="black"/><rect x="942.4865" y="1068.1622" width="6.2162" height="6.2162" fill="black"/><rect x="948.7027" y="1068.1622" width="6.2162" height="6.2162" fill="black"/><rect x="954.9189" y="1068.1622" width="6.2162" height="6.2162" fill="black"/><rect x="836.8108" y="1074.3784" width="6.2162" height="6.2162" fill="black"/><rect x="849.2432" y="1074.3784" width="6.2162" height="6.2162" fill="black"/><rect x="861.6757" y="1074.3784" width="6.2162" height="6.2162" fill="black"/><rect x="905.1892" y="1074.3784" width="6.2162" height="6.2162" fill="black"/><rect x="780.8649" y="1080.5946" width="6.2162" height="6.2162" fill="black"/><rect x="793.2973" y="1080.5946" width="6.2162" height="6.2162" fill="black"/><rect x="818.1622" y="1080.5946" width="6.2162" height="6.2162" fill="black"/><rect x="824.3784" y="1080.5946" width="6.2162" height="6.2162" fill="black"/><rect x="861.6757" y="1080.5946" width="6.2162" height="6.2162" fill="black"/><rect x="874.1081" y="1080.5946" width="6.2162" height="6.2162" fill="black"/><rect x="880.3243" y="1080.5946" width="6.2162" height="6.2162" fill="black"/><rect x="892.7568" y="1080.5946" width="6.2162" height="6.2162" fill="black"/><rect x="898.9730" y="1080.5946" width="6.2162" height="6.2162" fill="black"/><rect x="923.8378" y="1080.5946" width="6.2162" height="6.2162" fill="black"/><rect x="942.4865" y="1080.5946" width="6.2162" height="6.2162" fill="black"/><rect x="954.9189" y="1080.5946" width="6.2162" height="6.2162" fill="black"/><rect x="780.8649" y="1086.8108" width="6.2162" height="6.2162" fill="black"/><rect x="793.2973" y="1086.8108" width="6.2162" height="6.2162" fill="black"/><rect x="805.7297" y="1086.8108" width="6.2162" height="6.2162" fill="black"/><rect x="824.3784" y="1086.8108" width="6.2162" height="6.2162" fill="black"/><rect x="880.3243" y="1086.8108" width="6.2162" height="6.2162" fill="black"/><rect x="892.7568" y="1086.8108" width="6.2162" height="6.2162" fill="black"/><rect x="898.9730" y="1086.8108" width="6.2162" height="6.2162" fill="black"/><rect x="917.6216" y="1086.8108" width="6.2162" height="6.2162" fill="black"/><rect x="923.8378" y="1086.8108" width="6.2162" height="6.2162" fill="black"/><rect x="948.7027" y="1086.8108" width="6.2162" height="6.2162" fill="black"/><rect x="954.9189" y="1086.8108" width="6.2162" height="6.2162" fill="black"/><rect x="799.5135" y="1093.0270" width="6.2162" height="6.2162" fill="black"/><rect x="811.9459" y="1093.0270" width="6.2162" height="6.2162" fill="black"/><rect x="818.1622" y="1093.0270" width="6.2162" height="6.2162" fill="black"/><rect x="830.5946" y="1093.0270" width="6.2162" height="6.2162" fill="black"/><rect x="836.8108" y="1093.0270" width="6.2162" height="6.2162" fill="black"/><rect x="849.2432" y="1093.0270" width="6.2162" height="6.2162" fill="black"/><rect x="855.4595" y="1093.0270" width="6.2162" height="6.2162" fill="black"/><rect x="861.6757" y="1093.0270" width="6.2162" height="6.2162" fill="black"/><rect x="867.8919" y="1093.0270" width="6.2162" height="6.2162" fill="black"/><rect x="880.3243" y="1093.0270" width="6.2162" height="6.2162" fill="black"/><rect x="898.9730" y="1093.0270" width="6.2162" height="6.2162" fill="black"/><rect x="917.6216" y="1093.0270" width="6.2162" height="6.2162" fill="black"/><rect x="930.0541" y="1093.0270" width="6.2162" height="6.2162" fill="black"/><rect x="936.2703" y="1093.0270" width="6.2162" height="6.2162" fill="black"/><rect x="942.4865" y="1093.0270" width="6.2162" height="6.2162" fill="black"/><rect x="954.9189" y="1093.0270" width="6.2162" height="6.2162" fill="black"/><rect x="780.8649" y="1099.2432" width="6.2162" height="6.2162" fill="black"/><rect x="787.0811" y="1099.2432" width="6.2162" height="6.2162" fill="black"/><rect x="799.5135" y="1099.2432" width="6.2162" height="6.2162" fill="black"/><rect x="830.5946" y="1099.2432" width="6.2162" height="6.2162" fill="black"/><rect x="836.8108" y="1099.2432" width="6.2162" height="6.2162" fill="black"/><rect x="843.0270" y="1099.2432" width="6.2162" height="6.2162" fill="black"/><rect x="849.2432" y="1099.2432" width="6.2162" height="6.2162" fill="black"/><rect x="867.8919" y="1099.2432" width="6.2162" height="6.2162" fill="black"/><rect x="874.1081" y="1099.2432" width="6.2162" height="6.2162" fill="black"/><rect x="880.3243" y="1099.2432" width="6.2162" height="6.2162" fill="black"/><rect x="892.7568" y="1099.2432" width="6.2162" height="6.2162" fill="black"/><rect x="905.1892" y="1099.2432" width="6.2162" height="6.2162" fill="black"/><rect x="911.4054" y="1099.2432" width="6.2162" height="6.2162" fill="black"/><rect x="923.8378" y="1099.2432" width="6.2162" height="6.2162" fill="black"/><rect x="930.0541" y="1099.2432" width="6.2162" height="6.2162" fill="black"/><rect x="936.2703" y="1099.2432" width="6.2162" height="6.2162" fill="black"/><rect x="780.8649" y="1105.4595" width="6.2162" height="6.2162" fill="black"/><rect x="787.0811" y="1105.4595" width="6.2162" height="6.2162" fill="black"/><rect x="805.7297" y="1105.4595" width="6.2162" height="6.2162" fill="black"/><rect x="811.9459" y="1105.4595" width="6.2162" height="6.2162" fill="black"/><rect x="818.1622" y="1105.4595" width="6.2162" height="6.2162" fill="black"/><rect x="824.3784" y="1105.4595" width="6.2162" height="6.2162" fill="black"/><rect x="830.5946" y="1105.4595" width="6.2162" height="6.2162" fill="black"/><rect x="836.8108" y="1105.4595" width="6.2162" height="6.2162" fill="black"/><rect x="855.4595" y="1105.4595" width="6.2162" height="6.2162" fill="black"/><rect x="861.6757" y="1105.4595" width="6.2162" height="6.2162" fill="black"/><rect x="867.8919" y="1105.4595" width="6.2162" height="6.2162" fill="black"/><rect x="892.7568" y="1105.4595" width="6.2162" height="6.2162" fill="black"/><rect x="898.9730" y="1105.4595" width="6.2162" height="6.2162" fill="black"/><rect x="911.4054" y="1105.4595" width="6.2162" height="6.2162" fill="black"/><rect x="917.6216" y="1105.4595" width="6.2162" height="6.2162" fill="black"/><rect x="923.8378" y="1105.4595" width="6.2162" height="6.2162" fill="black"/><rect x="954.9189" y="1105.4595" width="6.2162" height="6.2162" fill="black"/><rect x="780.8649" y="1111.6757" width="6.2162" height="6.2162" fill="black"/><rect x="787.0811" y="1111.6757" width="6.2162" height="6.2162" fill="black"/><rect x="793.2973" y="1111.6757" width="6.2162" height="6.2162" fill="black"/><rect x="805.7297" y="1111.6757" width="6.2162" height="6.2162" fill="black"/><rect x="811.9459" y="1111.6757" width="6.2162" height="6.2162" fill="black"/><rect x="824.3784" y="1111.6757" width="6.2162" height="6.2162" fill="black"/><rect x="830.5946" y="1111.6757" width="6.2162" height="6.2162" fill="black"/><rect x="849.2432" y="1111.6757" width="6.2162" height="6.2162" fill="black"/><rect x="861.6757" y="1111.6757" width="6.2162" height="6.2162" fill="black"/><rect x="867.8919" y="1111.6757" width="6.2162" height="6.2162" fill="black"/><rect x="892.7568" y="1111.6757" width="6.2162" height="6.2162" fill="black"/><rect x="898.9730" y="1111.6757" width="6.2162" height="6.2162" fill="black"/><rect x="917.6216" y="1111.6757" width="6.2162" height="6.2162" fill="black"/><rect x="923.8378" y="1111.6757" width="6.2162" height="6.2162" fill="black"/><rect x="948.7027" y="1111.6757" width="6.2162" height="6.2162" fill="black"/><rect x="954.9189" y="1111.6757" width="6.2162" height="6.2162" fill="black"/><rect x="799.5135" y="1117.8919" width="6.2162" height="6.2162" fill="black"/><rect x="805.7297" y="1117.8919" width="6.2162" height="6.2162" fill="black"/><rect x="818.1622" y="1117.8919" width="6.2162" height="6.2162" fill="black"/><rect x="830.5946" y="1117.8919" width="6.2162" height="6.2162" fill="black"/><rect x="855.4595" y="1117.8919" width="6.2162" height="6.2162" fill="black"/><rect x="874.1081" y="1117.8919" width="6.2162" height="6.2162" fill="black"/><rect x="886.5405" y="1117.8919" width="6.2162" height="6.2162" fill="black"/><rect x="898.9730" y="1117.8919" width="6.2162" height="6.2162" fill="black"/><rect x="923.8378" y="1117.8919" width="6.2162" height="6.2162" fill="black"/><rect x="954.9189" y="1117.8919" width="6.2162" height="6.2162" fill="black"/><rect x="787.0811" y="1124.1081" width="6.2162" height="6.2162" fill="black"/><rect x="805.7297" y="1124.1081" width="6.2162" height="6.2162" fill="black"/><rect x="824.3784" y="1124.1081" width="6.2162" height="6.2162" fill="black"/><rect x="830.5946" y="1124.1081" width="6.2162" height="6.2162" fill="black"/><rect x="836.8108" y="1124.1081" width="6.2162" height="6.2162" fill="black"/><rect x="843.0270" y="1124.1081" width="6.2162" height="6.2162" fill="black"/><rect x="849.2432" y="1124.1081" width="6.2162" height="6.2162" fill="black"/><rect x="861.6757" y="1124.1081" width="6.2162" height="6.2162" fill="black"/><rect x="892.7568" y="1124.1081" width="6.2162" height="6.2162" fill="black"/><rect x="911.4054" y="1124.1081" width="6.2162" height="6.2162" fill="black"/><rect x="917.6216" y="1124.1081" width="6.2162" height="6.2162" fill="black"/><rect x="923.8378" y="1124.1081" width="6.2162" height="6.2162" fill="black"/><rect x="930.0541" y="1124.1081" width="6.2162" height="6.2162" fill="black"/><rect x="780.8649" y="1130.3243" width="6.2162" height="6.2162" fill="black"/><rect x="787.0811" y="1130.3243" width="6.2162" height="6.2162" fill="black"/><rect x="793.2973" y="1130.3243" width="6.2162" height="6.2162" fill="black"/><rect x="799.5135" y="1130.3243" width="6.2162" height="6.2162" fill="black"/><rect x="805.7297" y="1130.3243" width="6.2162" height="6.2162" fill="black"/><rect x="818.1622" y="1130.3243" width="6.2162" height="6.2162" fill="black"/><rect x="824.3784" y="1130.3243" width="6.2162" height="6.2162" fill="black"/><rect x="836.8108" y="1130.3243" width="6.2162" height="6.2162" fill="black"/><rect x="861.6757" y="1130.3243" width="6.2162" height="6.2162" fill="black"/><rect x="874.1081" y="1130.3243" width="6.2162" height="6.2162" fill="black"/><rect x="880.3243" y="1130.3243" width="6.2162" height="6.2162" fill="black"/><rect x="892.7568" y="1130.3243" width="6.2162" height="6.2162" fill="black"/><rect x="911.4054" y="1130.3243" width="6.2162" height="6.2162" fill="black"/><rect x="917.6216" y="1130.3243" width="6.2162" height="6.2162" fill="black"/><rect x="923.8378" y="1130.3243" width="6.2162" height="6.2162" fill="black"/><rect x="954.9189" y="1130.3243" width="6.2162" height="6.2162" fill="black"/><rect x="805.7297" y="1136.5405" width="6.2162" height="6.2162" fill="black"/><rect x="811.9459" y="1136.5405" width="6.2162" height="6.2162" fill="black"/><rect x="824.3784" y="1136.5405" width="6.2162" height="6.2162" fill="black"/><rect x="843.0270" y="1136.5405" width="6.2162" height="6.2162" fill="black"/><rect x="849.2432" y="1136.5405" width="6.2162" height="6.2162" fill="black"/><rect x="855.4595" y="1136.5405" width="6.2162" height="6.2162" fill="black"/><rect x="880.3243" y="1136.5405" width="6.2162" height="6.2162" fill="black"/><rect x="892.7568" y="1136.5405" width="6.2162" height="6.2162" fill="black"/><rect x="898.9730" y="1136.5405" width="6.2162" height="6.2162" fill="black"/><rect x="911.4054" y="1136.5405" width="6.2162" height="6.2162" fill="black"/><rect x="917.6216" y="1136.5405" width="6.2162" height="6.2162" fill="black"/><rect x="942.4865" y="1136.5405" width="6.2162" height="6.2162" fill="black"/><rect x="948.7027" y="1136.5405" width="6.2162" height="6.2162" fill="black"/><rect x="954.9189" y="1136.5405" width="6.2162" height="6.2162" fill="black"/><rect x="780.8649" y="1142.7568" width="6.2162" height="6.2162" fill="black"/><rect x="787.0811" y="1142.7568" width="6.2162" height="6.2162" fill="black"/><rect x="799.5135" y="1142.7568" width="6.2162" height="6.2162" fill="black"/><rect x="805.7297" y="1142.7568" width="6.2162" height="6.2162" fill="black"/><rect x="818.1622" y="1142.7568" width="6.2162" height="6.2162" fill="black"/><rect x="824.3784" y="1142.7568" width="6.2162" height="6.2162" fill="black"/><rect x="830.5946" y="1142.7568" width="6.2162" height="6.2162" fill="black"/><rect x="836.8108" y="1142.7568" width="6.2162" height="6.2162" fill="black"/><rect x="843.0270" y="1142.7568" width="6.2162" height="6.2162" fill="black"/><rect x="849.2432" y="1142.7568" width="6.2162" height="6.2162" fill="black"/><rect x="861.6757" y="1142.7568" width="6.2162" height="6.2162" fill="black"/><rect x="867.8919" y="1142.7568" width="6.2162" height="6.2162" fill="black"/><rect x="880.3243" y="1142.7568" width="6.2162" height="6.2162" fill="black"/><rect x="898.9730" y="1142.7568" width="6.2162" height="6.2162" fill="black"/><rect x="917.6216" y="1142.7568" width="6.2162" height="6.2162" fill="black"/><rect x="930.0541" y="1142.7568" width="6.2162" height="6.2162" fill="black"/><rect x="936.2703" y="1142.7568" width="6.2162" height="6.2162" fill="black"/><rect x="954.9189" y="1142.7568" width="6.2162" height="6.2162" fill="black"/><rect x="793.2973" y="1148.9730" width="6.2162" height="6.2162" fill="black"/><rect x="811.9459" y="1148.9730" width="6.2162" height="6.2162" fill="black"/><rect x="830.5946" y="1148.9730" width="6.2162" height="6.2162" fill="black"/><rect x="836.8108" y="1148.9730" width="6.2162" height="6.2162" fill="black"/><rect x="849.2432" y="1148.9730" width="6.2162" height="6.2162" fill="black"/><rect x="867.8919" y="1148.9730" width="6.2162" height="6.2162" fill="black"/><rect x="874.1081" y="1148.9730" width="6.2162" height="6.2162" fill="black"/><rect x="880.3243" y="1148.9730" width="6.2162" height="6.2162" fill="black"/><rect x="892.7568" y="1148.9730" width="6.2162" height="6.2162" fill="black"/><rect x="911.4054" y="1148.9730" width="6.2162" height="6.2162" fill="black"/><rect x="780.8649" y="1155.1892" width="6.2162" height="6.2162" fill="black"/><rect x="787.0811" y="1155.1892" width="6.2162" height="6.2162" fill="black"/><rect x="818.1622" y="1155.1892" width="6.2162" height="6.2162" fill="black"/><rect x="824.3784" y="1155.1892" width="6.2162" height="6.2162" fill="black"/><rect x="836.8108" y="1155.1892" width="6.2162" height="6.2162" fill="black"/><rect x="843.0270" y="1155.1892" width="6.2162" height="6.2162" fill="black"/><rect x="849.2432" y="1155.1892" width="6.2162" height="6.2162" fill="black"/><rect x="861.6757" y="1155.1892" width="6.2162" height="6.2162" fill="black"/><rect x="867.8919" y="1155.1892" width="6.2162" height="6.2162" fill="black"/><rect x="886.5405" y="1155.1892" width="6.2162" height="6.2162" fill="black"/><rect x="892.7568" y="1155.1892" width="6.2162" height="6.2162" fill="black"/><rect x="898.9730" y="1155.1892" width="6.2162" height="6.2162" fill="black"/><rect x="905.1892" y="1155.1892" width="6.2162" height="6.2162" fill="black"/><rect x="911.4054" y="1155.1892" width="6.2162" height="6.2162" fill="black"/><rect x="917.6216" y="1155.1892" width="6.2162" height="6.2162" fill="black"/><rect x="923.8378" y="1155.1892" width="6.2162" height="6.2162" fill="black"/><rect x="930.0541" y="1155.1892" width="6.2162" height="6.2162" fill="black"/><rect x="936.2703" y="1155.1892" width="6.2162" height="6.2162" fill="black"/><rect x="948.7027" y="1155.1892" width="6.2162" height="6.2162" fill="black"/><rect x="830.5946" y="1161.4054" width="6.2162" height="6.2162" fill="black"/><rect x="843.0270" y="1161.4054" width="6.2162" height="6.2162" fill="black"/><rect x="861.6757" y="1161.4054" width="6.2162" height="6.2162" fill="black"/><rect x="867.8919" y="1161.4054" width="6.2162" height="6.2162" fill="black"/><rect x="886.5405" y="1161.4054" width="6.2162" height="6.2162" fill="black"/><rect x="898.9730" y="1161.4054" width="6.2162" height="6.2162" fill="black"/><rect x="905.1892" y="1161.4054" width="6.2162" height="6.2162" fill="black"/><rect x="930.0541" y="1161.4054" width="6.2162" height="6.2162" fill="black"/><rect x="936.2703" y="1161.4054" width="6.2162" height="6.2162" fill="black"/><rect x="942.4865" y="1161.4054" width="6.2162" height="6.2162" fill="black"/><rect x="954.9189" y="1161.4054" width="6.2162" height="6.2162" fill="black"/><rect x="780.8649" y="1167.6216" width="6.2162" height="6.2162" fill="black"/><rect x="787.0811" y="1167.6216" width="6.2162" height="6.2162" fill="black"/><rect x="793.2973" y="1167.6216" width="6.2162" height="6.2162" fill="black"/><rect x="799.5135" y="1167.6216" width="6.2162" height="6.2162" fill="black"/><rect x="805.7297" y="1167.6216" width="6.2162" height="6.2162" fill="black"/><rect x="811.9459" y="1167.6216" width="6.2162" height="6.2162" fill="black"/><rect x="818.1622" y="1167.6216" width="6.2162" height="6.2162" fill="black"/><rect x="830.5946" y="1167.6216" width="6.2162" height="6.2162" fill="black"/><rect x="874.1081" y="1167.6216" width="6.2162" height="6.2162" fill="black"/><rect x="905.1892" y="1167.6216" width="6.2162" height="6.2162" fill="black"/><rect x="917.6216" y="1167.6216" width="6.2162" height="6.2162" fill="black"/><rect x="930.0541" y="1167.6216" width="6.2162" height="6.2162" fill="black"/><rect x="954.9189" y="1167.6216" width="6.2162" height="6.2162" fill="black"/><rect x="780.8649" y="1173.8378" width="6.2162" height="6.2162" fill="black"/><rect x="818.1622" y="1173.8378" width="6.2162" height="6.2162" fill="black"/><rect x="849.2432" y="1173.8378" width="6.2162" height="6.2162" fill="black"/><rect x="861.6757" y="1173.8378" width="6.2162" height="6.2162" fill="black"/><rect x="886.5405" y="1173.8378" width="6.2162" height="6.2162" fill="black"/><rect x="905.1892" y="1173.8378" width="6.2162" height="6.2162" fill="black"/><rect x="930.0541" y="1173.8378" width="6.2162" height="6.2162" fill="black"/><rect x="948.7027" y="1173.8378" width="6.2162" height="6.2162" fill="black"/><rect x="954.9189" y="1173.8378" width="6.2162" height="6.2162" fill="black"/><rect x="780.8649" y="1180.0541" width="6.2162" height="6.2162" fill="black"/><rect x="793.2973" y="1180.0541" width="6.2162" height="6.2162" fill="black"/><rect x="799.5135" y="1180.0541" width="6.2162" height="6.2162" fill="black"/><rect x="805.7297" y="1180.0541" width="6.2162" height="6.2162" fill="black"/><rect x="818.1622" y="1180.0541" width="6.2162" height="6.2162" fill="black"/><rect x="836.8108" y="1180.0541" width="6.2162" height="6.2162" fill="black"/><rect x="861.6757" y="1180.0541" width="6.2162" height="6.2162" fill="black"/><rect x="874.1081" y="1180.0541" width="6.2162" height="6.2162" fill="black"/><rect x="880.3243" y="1180.0541" width="6.2162" height="6.2162" fill="black"/><rect x="886.5405" y="1180.0541" width="6.2162" height="6.2162" fill="black"/><rect x="898.9730" y="1180.0541" width="6.2162" height="6.2162" fill="black"/><rect x="905.1892" y="1180.0541" width="6.2162" height="6.2162" fill="black"/><rect x="911.4054" y="1180.0541" width="6.2162" height="6.2162" fill="black"/><rect x="917.6216" y="1180.0541" width="6.2162" height="6.2162" fill="black"/><rect x="923.8378" y="1180.0541" width="6.2162" height="6.2162" fill="black"/><rect x="930.0541" y="1180.0541" width="6.2162" height="6.2162" fill="black"/><rect x="936.2703" y="1180.0541" width="6.2162" height="6.2162" fill="black"/><rect x="948.7027" y="1180.0541" width="6.2162" height="6.2162" fill="black"/><rect x="780.8649" y="1186.2703" width="6.2162" height="6.2162" fill="black"/><rect x="793.2973" y="1186.2703" width="6.2162" height="6.2162" fill="black"/><rect x="799.5135" y="1186.2703" width="6.2162" height="6.2162" fill="black"/><rect x="805.7297" y="1186.2703" width="6.2162" height="6.2162" fill="black"/><rect x="818.1622" y="1186.2703" width="6.2162" height="6.2162" fill="black"/><rect x="836.8108" y="1186.2703" width="6.2162" height="6.2162" fill="black"/><rect x="849.2432" y="1186.2703" width="6.2162" height="6.2162" fill="black"/><rect x="861.6757" y="1186.2703" width="6.2162" height="6.2162" fill="black"/><rect x="880.3243" y="1186.2703" width="6.2162" height="6.2162" fill="black"/><rect x="898.9730" y="1186.2703" width="6.2162" height="6.2162" fill="black"/><rect x="930.0541" y="1186.2703" width="6.2162" height="6.2162" fill="black"/><rect x="936.2703" y="1186.2703" width="6.2162" height="6.2162" fill="black"/><rect x="942.4865" y="1186.2703" width="6.2162" height="6.2162" fill="black"/><rect x="948.7027" y="1186.2703" width="6.2162" height="6.2162" fill="black"/><rect x="780.8649" y="1192.4865" width="6.2162" height="6.2162" fill="black"/><rect x="793.2973" y="1192.4865" width="6.2162" height="6.2162" fill="black"/><rect x="799.5135" y="1192.4865" width="6.2162" height="6.2162" fill="black"/><rect x="805.7297" y="1192.4865" width="6.2162" height="6.2162" fill="black"/><rect x="818.1622" y="1192.4865" width="6.2162" height="6.2162" fill="black"/><rect x="830.5946" y="1192.4865" width="6.2162" height="6.2162" fill="black"/><rect x="843.0270" y="1192.4865" width="6.2162" height="6.2162" fill="black"/><rect x="849.2432" y="1192.4865" width="6.2162" height="6.2162" fill="black"/><rect x="855.4595" y="1192.4865" width="6.2162" height="6.2162" fill="black"/><rect x="867.8919" y="1192.4865" width="6.2162" height="6.2162" fill="black"/><rect x="880.3243" y="1192.4865" width="6.2162" height="6.2162" fill="black"/><rect x="886.5405" y="1192.4865" width="6.2162" height="6.2162" fill="black"/><rect x="892.7568" y="1192.4865" width="6.2162" height="6.2162" fill="black"/><rect x="898.9730" y="1192.4865" width="6.2162" height="6.2162" fill="black"/><rect x="905.1892" y="1192.4865" width="6.2162" height="6.2162" fill="black"/><rect x="930.0541" y="1192.4865" width="6.2162" height="6.2162" fill="black"/><rect x="948.7027" y="1192.4865" width="6.2162" height="6.2162" fill="black"/><rect x="954.9189" y="1192.4865" width="6.2162" height="6.2162" fill="black"/><rect x="780.8649" y="1198.7027" width="6.2162" height="6.2162" fill="black"/><rect x="818.1622" y="1198.7027" width="6.2162" height="6.2162" fill="black"/><rect x="836.8108" y="1198.7027" width="6.2162" height="6.2162" fill="black"/><rect x="843.0270" y="1198.7027" width="6.2162" height="6.2162" fill="black"/><rect x="874.1081" y="1198.7027" width="6.2162" height="6.2162" fill="black"/><rect x="880.3243" y="1198.7027" width="6.2162" height="6.2162" fill="black"/><rect x="892.7568" y="1198.7027" width="6.2162" height="6.2162" fill="black"/><rect x="898.9730" y="1198.7027" width="6.2162" height="6.2162" fill="black"/><rect x="905.1892" y="1198.7027" width="6.2162" height="6.2162" fill="black"/><rect x="911.4054" y="1198.7027" width="6.2162" height="6.2162" fill="black"/><rect x="923.8378" y="1198.7027" width="6.2162" height="6.2162" fill="black"/><rect x="930.0541" y="1198.7027" width="6.2162" height="6.2162" fill="black"/><rect x="936.2703" y="1198.7027" width="6.2162" height="6.2162" fill="black"/><rect x="780.8649" y="1204.9189" width="6.2162" height="6.2162" fill="black"/><rect x="787.0811" y="1204.9189" width="6.2162" height="6.2162" fill="black"/><rect x="793.2973" y="1204.9189" width="6.2162" height="6.2162" fill="black"/><rect x="799.5135" y="1204.9189" width="6.2162" height="6.2162" fill="black"/><rect x="805.7297" y="1204.9189" width="6.2162" height="6.2162" fill="black"/><rect x="811.9459" y="1204.9189" width="6.2162" height="6.2162" fill="black"/><rect x="818.1622" y="1204.9189" width="6.2162" height="6.2162" fill="black"/><rect x="830.5946" y="1204.9189" width="6.2162" height="6.2162" fill="black"/><rect x="836.8108" y="1204.9189" width="6.2162" height="6.2162" fill="black"/><rect x="843.0270" y="1204.9189" width="6.2162" height="6.2162" fill="black"/><rect x="849.2432" y="1204.9189" width="6.2162" height="6.2162" fill="black"/><rect x="861.6757" y="1204.9189" width="6.2162" height="6.2162" fill="black"/><rect x="867.8919" y="1204.9189" width="6.2162" height="6.2162" fill="black"/><rect x="886.5405" y="1204.9189" width="6.2162" height="6.2162" fill="black"/><rect x="892.7568" y="1204.9189" width="6.2162" height="6.2162" fill="black"/><rect x="898.9730" y="1204.9189" width="6.2162" height="6.2162" fill="black"/><rect x="905.1892" y="1204.9189" width="6.2162" height="6.2162" fill="black"/><rect x="917.6216" y="1204.9189" width="6.2162" height="6.2162" fill="black"/><rect x="930.0541" y="1204.9189" width="6.2162" height="6.2162" fill="black"/><rect x="954.9189" y="1204.9189" width="6.2162" height="6.2162" fill="black"/><text x="66" y="1306" fill="#4f6246" font-family="monospace" font-size="16" font-weight="400">SÃO PAULO, BR</text><text x="590" y="1306" fill="#4f6246" font-family="monospace" font-size="16" font-weight="400">PYTHON · AUTOMAÇÃO · DADOS</text></svg>